#N canvas 0 38 1512 916 12;
#X obj 756 79 r knob2;
#X msg 793 365 \; screenLine2 DECAY: \$1 \;;
#X text 816 81 <-- decay;
#X obj 715 49 loadbang;
#X obj 756 144 * 100;
#X obj 756 173 int;
#X obj 756 204 change;
#X obj 756 236 * 50;
#X obj 756 266 max 1;
#X obj 488 81 inlet;
#X obj 643 367 int;
#X obj 284 82 inlet;
#X obj 131 81 inlet~;
#X obj 643 432 line~;
#X obj 643 465 cos~;
#X msg 643 401 0 \, 0.5 \$1;
#X obj 643 496 /~ 2;
#X obj 643 526 +~ 0.5;
#X obj 311 254 tgl 19 0 empty empty <--\ note\ on 25 10 0 12 #fcfcfc #000000 #000000 0 1;
#X msg 335 216 0;
#X msg 285 215 1;
#X obj 643 559 *~;
#X obj 311 317 select 1 0;
#X msg 348 445 0;
#X obj 643 590 +~;
#X msg 312 445 1;
#X msg 346 396 0;
#X msg 385 397 1;
#X obj 311 284 change;
#X obj 488 111 t b b;
#X floatatom 756 298 5 0 0 1 <--\ decay\ ms - - 0;
#X obj 334 81 loadbang;
#X text 505 401 decay envelope -->;
#X obj 135 648 *~;
#X text 48 82 signal -->;
#X obj 135 680 outlet~;
#X text 198 82 note-on -->;
#X text 536 80 <-- note-off;
#X msg 793 335 symbol \$1ms;
#X obj 756 113 float;
#X msg 715 80 1;
#X text 46 17 Receives a signal \, note-on and note-off messages. The note-off message is handled with added decay. Possibly confusing: here "decay" is the same as "release" in an ADSR envelope., f 63;
#X connect 0 0 39 0;
#X connect 3 0 40 0;
#X connect 4 0 5 0;
#X connect 5 0 6 0;
#X connect 6 0 7 0;
#X connect 7 0 8 0;
#X connect 8 0 30 0;
#X connect 9 0 29 0;
#X connect 10 0 15 0;
#X connect 11 0 20 0;
#X connect 12 0 33 0;
#X connect 13 0 14 0;
#X connect 14 0 16 0;
#X connect 15 0 13 0;
#X connect 16 0 17 0;
#X connect 17 0 21 0;
#X connect 18 0 28 0;
#X connect 19 0 18 0;
#X connect 20 0 18 0;
#X connect 21 0 24 0;
#X connect 22 0 23 0;
#X connect 22 0 25 0;
#X connect 22 1 26 0;
#X connect 22 1 27 0;
#X connect 23 0 21 1;
#X connect 24 0 33 1;
#X connect 25 0 24 1;
#X connect 26 0 24 1;
#X connect 27 0 21 1;
#X connect 28 0 22 0;
#X connect 29 0 19 0;
#X connect 29 1 10 0;
#X connect 30 0 10 1;
#X connect 30 0 38 0;
#X connect 31 0 19 0;
#X connect 33 0 35 0;
#X connect 38 0 1 0;
#X connect 39 0 4 0;
#X connect 40 0 39 0;
#X connect 40 0 30 0;
