#N canvas 560 0 1120 1022 12;
#X obj 326 134 r aux;
#X obj 326 228 spigot;
#X obj 326 165 change;
#X obj 326 195 t b f, f 6;
#X text 443 29 Copyright (c) 2025 Jonathan Schoonhoven All rights reserved. Redistribution and use of this file \, in source or binary form \, without explicit permission from the copyright holder is prohibited., f 73;
#X obj 280 102 loadbang;
#X msg 280 134 0;
#X obj 327 361 t f f;
#X obj 359 295 float 0;
#X obj 326 259 t b b;
#X obj 327 332 +, f 5;
#X msg 326 295 1;
#X msg 569 738 \; led 0 \;;
#X msg 568 783 \; screenLine5 LATCH: off \;;
#X msg 571 648 \; led 1 \;;
#X obj 327 391 % 4;
#X obj 327 422 select 0 1 2 3;
#X msg 569 691 \; screenLine5 LATCH: sustain;
#X msg 569 555 \; led 2 \;;
#X msg 569 470 \; led 3 \;;
#X msg 569 514 \; screenLine5 LATCH: soft;
#X text 7 33 Use the aux button to latch the sustain and/or soft pedals. Sends "1" for latch on \, "0" for latch off. The left outlet is sustain \, the right outlet is soft., f 60;
#X obj 329 777 outlet, f 8;
#X msg 328 712 0;
#X msg 360 712 1;
#X obj 407 777 outlet, f 8;
#X msg 406 712 0;
#X msg 438 712 1;
#X text 329 799 sustain;
#X text 416 801 soft;
#X obj 329 750 tgl 19 0 empty empty empty 0 -10 0 12 #fcfcfc #000000 #000000 0 1;
#X obj 407 749 tgl 19 0 empty empty empty 0 -10 0 12 #fcfcfc #000000 #000000 0 1;
#X msg 569 598 \; screenLine5 LATCH: sustain/soft \;;
#X connect 0 0 2 0;
#X connect 1 0 9 0;
#X connect 2 0 3 0;
#X connect 3 0 1 0;
#X connect 3 1 1 1;
#X connect 5 0 6 0;
#X connect 6 0 2 0;
#X connect 6 0 16 0;
#X connect 7 0 15 0;
#X connect 7 1 8 1;
#X connect 8 0 10 1;
#X connect 9 0 11 0;
#X connect 9 1 8 0;
#X connect 10 0 7 0;
#X connect 11 0 10 0;
#X connect 15 0 16 0;
#X connect 16 0 12 0;
#X connect 16 0 13 0;
#X connect 16 0 26 0;
#X connect 16 0 23 0;
#X connect 16 1 14 0;
#X connect 16 1 17 0;
#X connect 16 1 24 0;
#X connect 16 2 32 0;
#X connect 16 2 18 0;
#X connect 16 2 27 0;
#X connect 16 3 19 0;
#X connect 16 3 20 0;
#X connect 16 3 23 0;
#X connect 23 0 30 0;
#X connect 24 0 30 0;
#X connect 26 0 31 0;
#X connect 27 0 31 0;
#X connect 30 0 22 0;
#X connect 31 0 25 0;
