#N canvas 560 0 1120 1022 10;
#X obj 602 24 bng 16 250 50 0 empty empty empty 0 -8 0 10 #fcfcfc #000000 #000000;
#X msg 773 100 -1;
#X obj 321 109 r knob1;
#X obj 321 138 *;
#X obj 321 168 int;
#X obj 321 224 change;
#X obj 628 24 loadbang;
#X obj 587 547 throw~ outL;
#X obj 676 547 throw~ outR;
#X obj 321 195 min;
#X obj 288 321 symbol;
#X obj 383 169 - 1;
#X obj 709 281 split_path;
#X obj 587 517 load_instrument;
#X obj 602 64 t b b b b b, f 16;
#X obj 655 476 text define state;
#X msg 288 422 write state.txt;
#X obj 528 162 text get state;
#X obj 528 137 text search state;
#X msg 655 442 read state.txt -cr;
#X obj 307 397 text set state 0;
#X obj 288 347 t b s s;
#X obj 528 185 unpack s s;
#X obj 294 251 t b f;
#X msg 360 320 \; screenLine1 K88: \$1 \;;
#X text 14 10 Copyright (c) 2025 Jonathan Schoonhoven All rights reserved. Redistribution and use of this file \, in source or binary form \, without explicit permission from the copyright holder is prohibited., f 73;
#X obj 202 280 delay 1000 1 msec;
#X obj 773 127 text delete kits;
#X obj 733 183 text define kits;
#X obj 709 250 folder_list ./kits/*/;
#X obj 709 312 text insert kits;
#X msg 528 109 symbol kit;
#X obj 382 109 text size kits;
#X obj 321 280 text get kits;
#X msg 307 372 list kit \$1;
#X connect 0 0 14 0;
#X connect 1 0 27 0;
#X connect 2 0 3 0;
#X connect 3 0 4 0;
#X connect 4 0 9 0;
#X connect 5 0 23 0;
#X connect 6 0 14 0;
#X connect 9 0 5 0;
#X connect 10 0 21 0;
#X connect 11 0 9 1;
#X connect 12 0 30 0;
#X connect 13 0 7 0;
#X connect 13 0 8 0;
#X connect 14 0 32 0;
#X connect 14 1 31 0;
#X connect 14 2 19 0;
#X connect 14 2 29 0;
#X connect 14 3 28 0;
#X connect 14 4 1 0;
#X connect 16 0 15 0;
#X connect 17 0 22 0;
#X connect 18 0 17 0;
#X connect 19 0 15 0;
#X connect 21 0 16 0;
#X connect 21 1 34 0;
#X connect 21 2 13 0;
#X connect 22 1 13 0;
#X connect 23 0 26 0;
#X connect 23 1 33 0;
#X connect 26 0 10 0;
#X connect 29 0 12 0;
#X connect 31 0 18 0;
#X connect 32 0 3 1;
#X connect 32 0 11 0;
#X connect 33 0 10 1;
#X connect 33 0 24 0;
#X connect 34 0 20 0;
