#N canvas 0 0 1680 1022 12;
#X obj 251 141 list fromsymbol;
#X obj 251 207 list length;
#X obj 251 272 until;
#X obj 251 306 float, f 7;
#X obj 251 239 t f f, f 7;
#X obj 251 341 - 1, f 4;
#X obj 251 444 list split, f 15;
#X obj 251 408 list, f 16;
#X obj 479 593 list;
#X obj 396 561 list store;
#X obj 302 481 sel 47, f 7;
#X obj 479 620 list tosymbol;
#X msg 479 562 delete 0 -1;
#X obj 251 173 t l l b, f 32;
#X obj 350 651 symbol, f 19;
#X obj 251 109 inlet;
#X obj 350 681 outlet;
#X obj 349 525 sel 92, f 7;
#X text 120 481 backslash for windows -->;
#X text 120 525 forward slash for mac/linux -->;
#X text 25 14 Receives a path as a symbol and loops backwards through each char until it hits a forward (mac/linux) or backwards (windows) slash. Trailing slashes are removed. Returns an empty symbol if the given path has no parent directory.;
#X text 314 109 <-- receives a path as a symbol;
#X text 409 680 <-- returns the last part of path as a symbol;
#X text 576 561 <-- clear the list;
#X obj 545 399 -;
#X obj 251 372 t b f f;
#X obj 506 459 spigot;
#X obj 545 431 + 1;
#X text 52 443 pop off end of the list -->;
#X text 562 460 <-- ignore trailing slashes;
#X obj 506 492 t b b;
#X text 561 16 Copyright (c) 2025 Jonathan Schoonhoven All rights reserved. Redistribution and use of this file \, in source or binary form \, without explicit permission from the copyright holder is prohibited., f 73;
#X connect 0 0 13 0;
#X connect 1 0 4 0;
#X connect 2 0 3 0;
#X connect 3 0 5 0;
#X connect 4 0 2 0;
#X connect 4 1 3 1;
#X connect 4 1 24 1;
#X connect 5 0 3 1;
#X connect 5 0 25 0;
#X connect 6 0 7 1;
#X connect 6 1 10 0;
#X connect 7 0 6 0;
#X connect 8 0 9 1;
#X connect 8 0 11 0;
#X connect 9 0 8 0;
#X connect 10 0 26 0;
#X connect 10 1 17 0;
#X connect 11 0 14 1;
#X connect 12 0 8 0;
#X connect 13 0 1 0;
#X connect 13 1 7 1;
#X connect 13 2 12 0;
#X connect 14 0 16 0;
#X connect 15 0 0 0;
#X connect 17 0 26 0;
#X connect 17 1 9 0;
#X connect 24 0 27 0;
#X connect 25 0 7 0;
#X connect 25 1 6 1;
#X connect 25 2 24 0;
#X connect 26 0 30 0;
#X connect 27 0 26 1;
#X connect 30 0 14 0;
#X connect 30 1 2 1;
