#N canvas 86 3 1120 1022 12;
#X obj 466 118 ctlin 64;
#X obj 466 149 > 64;
#X obj 466 177 tgl 19 0 empty empty empty 0 -10 0 12 #fcfcfc #000000 #000000 0 1;
#X text 532 117 <-- sustain pedal;
#X text 370 178 pedal on -->;
#X obj 704 179 tgl 19 0 empty empty empty 0 -10 0 12 #fcfcfc #000000 #000000 0 1;
#X text 729 179 <-- latch on;
#X obj 44 120 inlet;
#X text 94 119 <-- receive note-off messages as a bang;
#X text 358 235 <-- sustain begins off;
#X msg 44 152 1;
#X obj 44 181 int 0;
#X msg 94 152 0;
#X floatatom 44 214 5 0 0 0 - - - 0;
#X obj 44 271 spigot;
#X obj 44 242 t f f, f 6;
#X obj 251 501 spigot;
#X floatatom 290 474 3 0 0 0 - - - 0;
#X obj 437 357 select 1 0;
#X msg 437 388 0;
#X msg 470 388 1;
#X floatatom 251 474 3 0 0 0 - - - 0;
#X obj 574 282 max;
#X obj 617 283 max;
#X obj 292 235 loadbang;
#X obj 251 535 t b b;
#X text 129 152 <-- reset;
#X obj 284 610 outlet;
#X text 39 10 Handles sustain and latch modes. When either is active \, note-off messages are captured and held until both latch and sustain are disabled \, then sends a bang to the outlet.;
#X text 341 610 <-- send bang for note-off;
#X text 307 502 <-- pedal/latch captures note-off;
#X obj 574 314 change;
#X obj 470 414 t b f;
#X obj 596 44 loadbang;
#X msg 597 76 0;
#X text 728 16 Copyright (c) 2025 Jonathan Schoonhoven All rights reserved. Redistribution and use of this file \, in source or binary form \, without explicit permission from the copyright holder is prohibited., f 73;
#X obj 704 142 latch;
#X connect 0 0 1 0;
#X connect 1 0 2 0;
#X connect 2 0 22 0;
#X connect 2 0 23 1;
#X connect 5 0 22 1;
#X connect 5 0 23 0;
#X connect 7 0 10 0;
#X connect 10 0 11 0;
#X connect 11 0 13 0;
#X connect 12 0 11 0;
#X connect 13 0 15 0;
#X connect 14 0 21 0;
#X connect 15 0 14 0;
#X connect 15 1 14 1;
#X connect 16 0 25 0;
#X connect 17 0 16 1;
#X connect 18 0 19 0;
#X connect 18 1 20 0;
#X connect 19 0 17 0;
#X connect 20 0 32 0;
#X connect 21 0 16 0;
#X connect 22 0 31 0;
#X connect 23 0 31 0;
#X connect 24 0 17 0;
#X connect 25 0 12 0;
#X connect 25 1 27 0;
#X connect 31 0 18 0;
#X connect 32 0 11 0;
#X connect 32 1 17 0;
#X connect 33 0 34 0;
#X connect 34 0 1 0;
#X connect 34 0 5 0;
#X connect 36 0 5 0;
