#N canvas 1003 0 2005 1664 12;
#X msg 592 417 set \$1;
#X floatatom 721 175 5 0 0 1 <--\ note\ offset\ (semitones) - - 0;
#X obj 430 24 inlet, f 7;
#X obj 330 490 samphold~;
#X obj 932 554 samphold~;
#X obj 311 568 +~;
#X obj 312 622 tabread4~;
#X obj 712 864 outlet~;
#X obj 958 415 +~ 0.5;
#X obj 959 446 wrap~;
#X obj 916 626 +~;
#X obj 916 682 tabread4~;
#X obj 712 833 *~ 0.6;
#X obj 559 547 cos~;
#X obj 515 674 *~ 0.5;
#X obj 497 730 *~;
#X obj 1055 628 cos~;
#X obj 1037 682 *~ 0.5;
#X obj 1037 598 sig~ 1;
#X obj 1037 656 -~;
#X obj 916 729 *~;
#X floatatom 1200 753 5 0 0 0 window\ size\ in\ samples\ --> - - 0;
#X obj 1200 782 / 44100;
#X floatatom 1200 814 5 0 0 0 window\ length\ in\ seconds\ --> - - 0;
#X obj 1200 846 expr 1 / $f1;
#X floatatom 1200 881 5 0 0 0 window\ frequency\ in\ Hz\ --> - - 0;
#X floatatom 721 233 5 0 0 1 <--\ pitch\ shift\ ratio - - 0;
#X obj 282 527 *~;
#X obj 887 592 *~;
#X obj 721 204 expr pow(2 \, $f1/12);
#X obj 330 527 +~;
#X obj 934 593 +~;
#X obj 416 489 samphold~;
#X obj 1012 553 samphold~;
#N canvas 0 170 730 519 random_number_generator 0;
#X floatatom 261 151 7 0 0 0 - - - 0;
#X obj 260 66 loadbang;
#X obj 262 179 outlet;
#X obj 231 47 bng 19 250 50 0 empty empty empty 0 -10 0 12 #fcfcfc #000000 #000000;
#X obj 260 94 metro 100;
#X obj 260 121 random 100;
#X connect 0 0 2 0;
#X connect 1 0 4 0;
#X connect 3 0 4 0;
#X connect 4 0 5 0;
#X connect 5 0 0 0;
#X restore 1012 77 pd random_number_generator;
#X obj 721 148 / 100;
#X text 621 555 window = 14700 samples at 3Hz -->;
#X obj 261 55 t b b;
#X text 184 273 reset phase -->;
#X text 171 25 note on -->;
#X obj 261 24 inlet;
#X obj 327 25 inlet~;
#X text 493 25 <-- cents \, array_name, f 23;
#X obj 430 56 unpack f s, f 24;
#X obj 515 209 line~;
#X obj 515 239 cos~;
#X obj 533 586 sig~ 1;
#X obj 533 617 -~, f 4;
#X obj 515 645 +~;
#X obj 515 272 /~ 2;
#X obj 515 300 +~ 0.5;
#X text 289 176 don't fade in for new notes -->;
#X text 92 308 window size = 1/3s -->;
#X text 569 733 <------- crossfade between grains ------->;
#X text 1015 416 <-- 2nd grain overlaps 50%;
#X text 640 77 alter start sample when looping grains to "blur" -->;
#X msg 294 273 0;
#X msg 1200 722 44100;
#X obj 250 309 phasor~ 0.5;
#X obj 252 490 *~ 88200;
#X obj 857 555 *~ 88200;
#X msg 515 177 0 \, 0.5 1000;
#X connect 0 0 6 0;
#X connect 0 0 11 0;
#X connect 1 0 29 0;
#X connect 2 0 43 0;
#X connect 3 0 30 0;
#X connect 4 0 31 0;
#X connect 5 0 6 0;
#X connect 6 0 15 0;
#X connect 8 0 9 0;
#X connect 9 0 4 1;
#X connect 9 0 33 1;
#X connect 9 0 16 0;
#X connect 9 0 60 0;
#X connect 10 0 11 0;
#X connect 11 0 20 0;
#X connect 12 0 7 0;
#X connect 13 0 47 1;
#X connect 14 0 15 1;
#X connect 15 0 12 0;
#X connect 16 0 19 1;
#X connect 17 0 20 1;
#X connect 18 0 19 0;
#X connect 19 0 17 0;
#X connect 20 0 12 0;
#X connect 21 0 22 0;
#X connect 22 0 23 0;
#X connect 23 0 24 0;
#X connect 24 0 25 0;
#X connect 26 0 27 1;
#X connect 26 0 28 1;
#X connect 27 0 5 0;
#X connect 28 0 10 0;
#X connect 29 0 26 0;
#X connect 30 0 5 1;
#X connect 31 0 10 1;
#X connect 34 0 33 0;
#X connect 34 0 32 0;
#X connect 35 0 1 0;
#X connect 37 0 61 0;
#X connect 37 1 56 0;
#X connect 40 0 37 0;
#X connect 41 0 3 0;
#X connect 41 0 4 0;
#X connect 43 0 35 0;
#X connect 43 1 0 0;
#X connect 44 0 45 0;
#X connect 45 0 49 0;
#X connect 46 0 47 0;
#X connect 47 0 48 1;
#X connect 48 0 14 0;
#X connect 49 0 50 0;
#X connect 50 0 48 0;
#X connect 56 0 58 1;
#X connect 57 0 21 0;
#X connect 58 0 3 1;
#X connect 58 0 8 0;
#X connect 58 0 32 1;
#X connect 58 0 13 0;
#X connect 58 0 59 0;
#X connect 59 0 27 0;
#X connect 60 0 28 0;
#X connect 61 0 44 0;
