#N canvas 1003 0 2005 1664 12;
#X obj 471 52 inlet, f 7;
#X obj 470 235 unpack f f f f s, f 24;
#X obj 456 1103 outlet~;
#X floatatom 507 796 5 0 0 1 <--\ velocity - - 0;
#X obj 507 825 / 100;
#X obj 455 859 *~;
#X obj 456 690 transpose, f 14;
#X obj 555 423 * 100;
#X obj 456 663 bang;
#X obj 659 585 line~;
#X msg 659 555 0 \, \$1 \$2;
#X obj 658 530 pack f f;
#X obj 711 471 expr $f1 / 44.1;
#X obj 658 446 t f f, f 8;
#X floatatom 711 501 8 0 0 1 <--\ sample\ ms - - 0;
#X obj 658 417 float;
#X obj 554 489 pack f s, f 12;
#X obj 308 994 line~;
#X obj 456 1066 *~;
#X obj 238 359 t b b b b b, f 17;
#X obj 523 451 float;
#X obj 238 291 t b b, f 20;
#X obj 238 326 delay 2;
#X msg 237 950 0 \, 1 2;
#X msg 380 952 1 \, 0 2;
#X text 95 327 fade out/in 2ms -->;
#X text 39 82 note_on \, velocity \, note_offset \, num_samples \, array_name -->, f 60;
#X obj 689 325 t f f, f 8;
#X obj 569 170 select 0;
#X obj 503 110 unpack f f f f s, f 20;
#X obj 471 81 t l l;
#X obj 471 175 spigot;
#X obj 537 139 t f f;
#X text 195 174 block 0-velocity note-off messages -->;
#X obj 1018 410 sustain;
#X text 637 169 <-- pass note-off messages to sustain and decay envelope;
#X obj 456 1026 decay;
#X connect 0 0 30 0;
#X connect 1 0 21 0;
#X connect 1 1 3 0;
#X connect 1 2 7 0;
#X connect 1 3 27 0;
#X connect 1 4 16 1;
#X connect 3 0 4 0;
#X connect 4 0 5 1;
#X connect 5 0 36 0;
#X connect 6 0 5 0;
#X connect 7 0 20 1;
#X connect 8 0 6 0;
#X connect 9 0 6 1;
#X connect 10 0 9 0;
#X connect 11 0 10 0;
#X connect 12 0 14 0;
#X connect 13 0 11 0;
#X connect 13 1 12 0;
#X connect 14 0 11 1;
#X connect 15 0 13 0;
#X connect 16 0 6 2;
#X connect 17 0 18 1;
#X connect 18 0 2 0;
#X connect 19 0 23 0;
#X connect 19 1 8 0;
#X connect 19 2 20 0;
#X connect 19 3 36 1;
#X connect 19 4 15 0;
#X connect 20 0 16 0;
#X connect 21 0 22 0;
#X connect 21 1 24 0;
#X connect 22 0 19 0;
#X connect 23 0 17 0;
#X connect 24 0 17 0;
#X connect 27 0 15 1;
#X connect 28 0 34 0;
#X connect 29 1 32 0;
#X connect 30 0 31 0;
#X connect 30 1 29 0;
#X connect 31 0 1 0;
#X connect 32 0 31 1;
#X connect 32 1 28 0;
#X connect 34 0 36 2;
#X connect 36 0 18 0;
